# xmcd CD database file
#
# Track frame offsets:
#	150
#	18947
#	33279
#	48401
#	66324
#	92595
#	99566
#	110681
#	127505
#	140763
#	146639
#	163751
#	170515
#	177959
#
# Disc length: 2757 seconds
#
# Revision: 0
# Processed by: cddbd v1.5.2PL0 Copyright (c) Steve Scherf et al.
# Submitted via: CDex 1.51
#
DISCID=bd0ac30e
DTITLE=Mike Oldfield - Music Of The Spheres
DYEAR=2008
DGENRE=New Age
TTITLE0=Harbinger
TTITLE1=Animus
TTITLE2=Silhouette
TTITLE3=Shabda
TTITLE4=Tempest
TTITLE5=Harbinger Reprise
TTITLE6=On My Heart
TTITLE7=Aurora
TTITLE8=Prophecy
TTITLE9=On My Heart Reprise
TTITLE10=Harmonia Mundi
TTITLE11=Other Side
TTITLE12=Empyrean
TTITLE13=Musica Universalis
EXTD=YEAR: 2008
EXTT0=
EXTT1=
EXTT2=
EXTT3=
EXTT4=
EXTT5=
EXTT6=
EXTT7=
EXTT8=
EXTT9=
EXTT10=
EXTT11=
EXTT12=
EXTT13=
PLAYORDER=
